<svg width="377" height="101" viewBox="0 0 377 101" fill="none" xmlns="http://www.w3.org/2000/svg">
<rect width="377" height="101" fill="#0056E0"/>
<circle cx="52" cy="52" r="40" fill="white"/>
<path d="M44.4102 42.9375V60H40.8945L34.0391 48.5625V60H30.5234V42.9375H34.0391L40.9062 54.3867V42.9375H44.4102ZM58.4375 57.2578V60H49.8477V57.2578H58.4375ZM50.9844 42.9375V60H47.4688V42.9375H50.9844ZM71.832 49.8867V52.6289H62.9258V49.8867H71.832ZM63.9688 42.9375V60H60.4531V42.9375H63.9688ZM74.3398 42.9375V60H70.8359V42.9375H74.3398Z" fill="black"/>
<path d="M117.216 57.5723V61H105.863V57.5723H117.216ZM107.299 39.6719V61H102.904V39.6719H107.299ZM115.736 48.3584V51.6982H105.863V48.3584H115.736ZM117.201 39.6719V43.1143H105.863V39.6719H117.201ZM132.143 53.9248H136.522C136.435 55.3604 136.039 56.6348 135.336 57.748C134.643 58.8613 133.671 59.7305 132.421 60.3555C131.181 60.9805 129.687 61.293 127.938 61.293C126.571 61.293 125.346 61.0586 124.262 60.5898C123.178 60.1113 122.25 59.4277 121.479 58.5391C120.717 57.6504 120.136 56.5762 119.735 55.3164C119.335 54.0566 119.135 52.6455 119.135 51.083V49.6035C119.135 48.041 119.34 46.6299 119.75 45.3701C120.17 44.1006 120.766 43.0215 121.537 42.1328C122.318 41.2441 123.251 40.5605 124.335 40.082C125.419 39.6035 126.63 39.3643 127.968 39.3643C129.745 39.3643 131.244 39.6865 132.465 40.3311C133.695 40.9756 134.647 41.8643 135.321 42.9971C136.005 44.1299 136.415 45.4189 136.552 46.8643H132.157C132.108 46.0049 131.938 45.2773 131.645 44.6816C131.352 44.0762 130.907 43.6221 130.312 43.3193C129.726 43.0068 128.944 42.8506 127.968 42.8506C127.235 42.8506 126.596 42.9873 126.049 43.2607C125.502 43.5342 125.043 43.9492 124.672 44.5059C124.301 45.0625 124.022 45.7656 123.837 46.6152C123.661 47.4551 123.573 48.4414 123.573 49.5742V51.083C123.573 52.1865 123.656 53.1582 123.822 53.998C123.988 54.8281 124.242 55.5312 124.584 56.1074C124.936 56.6738 125.385 57.1035 125.932 57.3965C126.488 57.6797 127.157 57.8213 127.938 57.8213C128.856 57.8213 129.613 57.6748 130.209 57.3818C130.805 57.0889 131.259 56.6543 131.571 56.0781C131.894 55.502 132.084 54.7842 132.143 53.9248ZM138.471 53.2363V52.9287C138.471 51.7666 138.637 50.6973 138.969 49.7207C139.301 48.7344 139.784 47.8799 140.419 47.1572C141.054 46.4346 141.835 45.873 142.763 45.4727C143.69 45.0625 144.755 44.8574 145.956 44.8574C147.157 44.8574 148.227 45.0625 149.164 45.4727C150.102 45.873 150.888 46.4346 151.522 47.1572C152.167 47.8799 152.655 48.7344 152.987 49.7207C153.319 50.6973 153.485 51.7666 153.485 52.9287V53.2363C153.485 54.3887 153.319 55.458 152.987 56.4443C152.655 57.4209 152.167 58.2754 151.522 59.0078C150.888 59.7305 150.106 60.292 149.179 60.6924C148.251 61.0928 147.187 61.293 145.985 61.293C144.784 61.293 143.715 61.0928 142.777 60.6924C141.85 60.292 141.063 59.7305 140.419 59.0078C139.784 58.2754 139.301 57.4209 138.969 56.4443C138.637 55.458 138.471 54.3887 138.471 53.2363ZM142.689 52.9287V53.2363C142.689 53.9004 142.748 54.5205 142.865 55.0967C142.982 55.6729 143.168 56.1807 143.422 56.6201C143.686 57.0498 144.027 57.3867 144.447 57.6309C144.867 57.875 145.38 57.9971 145.985 57.9971C146.571 57.9971 147.074 57.875 147.494 57.6309C147.914 57.3867 148.251 57.0498 148.505 56.6201C148.759 56.1807 148.944 55.6729 149.062 55.0967C149.188 54.5205 149.252 53.9004 149.252 53.2363V52.9287C149.252 52.2842 149.188 51.6787 149.062 51.1123C148.944 50.5361 148.754 50.0283 148.49 49.5889C148.236 49.1396 147.899 48.7881 147.479 48.5342C147.06 48.2803 146.552 48.1533 145.956 48.1533C145.36 48.1533 144.853 48.2803 144.433 48.5342C144.022 48.7881 143.686 49.1396 143.422 49.5889C143.168 50.0283 142.982 50.5361 142.865 51.1123C142.748 51.6787 142.689 52.2842 142.689 52.9287ZM160.297 48.4316V61H156.063V45.1504H160.033L160.297 48.4316ZM159.711 52.5186H158.539C158.539 51.415 158.671 50.3994 158.935 49.4717C159.208 48.5342 159.604 47.7236 160.121 47.04C160.648 46.3467 161.298 45.8096 162.069 45.4287C162.841 45.0479 163.734 44.8574 164.75 44.8574C165.453 44.8574 166.098 44.9648 166.684 45.1797C167.27 45.3848 167.772 45.7119 168.192 46.1611C168.622 46.6006 168.954 47.1768 169.188 47.8896C169.423 48.5928 169.54 49.4375 169.54 50.4238V61H165.321V50.8926C165.321 50.1699 165.224 49.6133 165.028 49.2227C164.833 48.832 164.555 48.5586 164.193 48.4023C163.842 48.2461 163.417 48.168 162.919 48.168C162.372 48.168 161.894 48.2803 161.483 48.5049C161.083 48.7295 160.751 49.042 160.487 49.4424C160.224 49.833 160.028 50.292 159.901 50.8193C159.774 51.3467 159.711 51.9131 159.711 52.5186ZM169.145 52.0352L167.636 52.2256C167.636 51.1904 167.763 50.2285 168.017 49.3398C168.28 48.4512 168.666 47.6699 169.174 46.9961C169.691 46.3223 170.331 45.7998 171.093 45.4287C171.854 45.0479 172.733 44.8574 173.729 44.8574C174.491 44.8574 175.185 44.9697 175.81 45.1943C176.435 45.4092 176.967 45.7559 177.406 46.2344C177.855 46.7031 178.197 47.3184 178.432 48.0801C178.676 48.8418 178.798 49.7744 178.798 50.8779V61H174.564V50.8779C174.564 50.1455 174.467 49.5889 174.271 49.208C174.086 48.8174 173.812 48.5488 173.451 48.4023C173.1 48.2461 172.68 48.168 172.191 48.168C171.684 48.168 171.239 48.2705 170.858 48.4756C170.478 48.6709 170.16 48.9443 169.906 49.2959C169.652 49.6475 169.462 50.0576 169.335 50.5264C169.208 50.9854 169.145 51.4883 169.145 52.0352ZM189.359 61.293C188.129 61.293 187.025 61.0977 186.049 60.707C185.072 60.3066 184.242 59.7549 183.559 59.0518C182.885 58.3486 182.367 57.5332 182.006 56.6055C181.645 55.668 181.464 54.6719 181.464 53.6172V53.0312C181.464 51.8301 181.635 50.7314 181.977 49.7354C182.318 48.7393 182.807 47.875 183.441 47.1426C184.086 46.4102 184.867 45.8486 185.785 45.458C186.703 45.0576 187.738 44.8574 188.891 44.8574C190.014 44.8574 191.01 45.043 191.879 45.4141C192.748 45.7852 193.476 46.3125 194.062 46.9961C194.657 47.6797 195.106 48.5 195.409 49.457C195.712 50.4043 195.863 51.459 195.863 52.6211V54.3789H183.266V51.5664H191.718V51.2441C191.718 50.6582 191.61 50.1357 191.396 49.6768C191.19 49.208 190.878 48.8369 190.458 48.5635C190.038 48.29 189.501 48.1533 188.847 48.1533C188.29 48.1533 187.812 48.2754 187.411 48.5195C187.011 48.7637 186.684 49.1055 186.43 49.5449C186.186 49.9844 186 50.502 185.873 51.0977C185.756 51.6836 185.697 52.3281 185.697 53.0312V53.6172C185.697 54.252 185.785 54.8379 185.961 55.375C186.146 55.9121 186.405 56.376 186.737 56.7666C187.079 57.1572 187.489 57.46 187.968 57.6748C188.456 57.8896 189.008 57.9971 189.623 57.9971C190.385 57.9971 191.093 57.8506 191.747 57.5576C192.411 57.2549 192.982 56.8008 193.461 56.1953L195.512 58.4219C195.18 58.9004 194.726 59.3594 194.149 59.7988C193.583 60.2383 192.899 60.5996 192.099 60.8828C191.298 61.1562 190.385 61.293 189.359 61.293ZM202.484 48.6074V61H198.266V45.1504H202.235L202.484 48.6074ZM207.26 45.0479L207.187 48.959C206.981 48.9297 206.732 48.9053 206.439 48.8857C206.156 48.8564 205.897 48.8418 205.663 48.8418C205.067 48.8418 204.55 48.9199 204.11 49.0762C203.681 49.2227 203.319 49.4424 203.026 49.7354C202.743 50.0283 202.528 50.3848 202.382 50.8047C202.245 51.2246 202.167 51.7031 202.147 52.2402L201.298 51.9766C201.298 50.9512 201.4 50.0088 201.605 49.1494C201.811 48.2803 202.108 47.5234 202.499 46.8789C202.899 46.2344 203.388 45.7363 203.964 45.3848C204.54 45.0332 205.199 44.8574 205.941 44.8574C206.176 44.8574 206.415 44.877 206.659 44.916C206.903 44.9453 207.104 44.9893 207.26 45.0479ZM215.507 57.9971C216.024 57.9971 216.483 57.8994 216.884 57.7041C217.284 57.499 217.597 57.2158 217.821 56.8545C218.056 56.4834 218.178 56.0488 218.188 55.5508H222.157C222.147 56.6641 221.85 57.6553 221.264 58.5244C220.678 59.3838 219.892 60.0625 218.905 60.5605C217.919 61.0488 216.815 61.293 215.595 61.293C214.364 61.293 213.29 61.0879 212.372 60.6777C211.464 60.2676 210.707 59.7012 210.102 58.9785C209.496 58.2461 209.042 57.3965 208.739 56.4297C208.437 55.4531 208.285 54.4082 208.285 53.2949V52.8701C208.285 51.7471 208.437 50.7021 208.739 49.7354C209.042 48.7588 209.496 47.9092 210.102 47.1865C210.707 46.4541 211.464 45.8828 212.372 45.4727C213.28 45.0625 214.345 44.8574 215.565 44.8574C216.864 44.8574 218.002 45.1064 218.979 45.6045C219.965 46.1025 220.736 46.8154 221.293 47.7432C221.859 48.6611 222.147 49.75 222.157 51.0098H218.188C218.178 50.4824 218.065 50.0039 217.851 49.5742C217.646 49.1445 217.343 48.8027 216.942 48.5488C216.552 48.2852 216.068 48.1533 215.492 48.1533C214.877 48.1533 214.374 48.2852 213.983 48.5488C213.593 48.8027 213.29 49.1543 213.075 49.6035C212.86 50.043 212.709 50.5459 212.621 51.1123C212.543 51.6689 212.504 52.2549 212.504 52.8701V53.2949C212.504 53.9102 212.543 54.501 212.621 55.0674C212.699 55.6338 212.846 56.1367 213.061 56.5762C213.285 57.0156 213.593 57.3623 213.983 57.6162C214.374 57.8701 214.882 57.9971 215.507 57.9971ZM231.898 61.293C230.668 61.293 229.564 61.0977 228.588 60.707C227.611 60.3066 226.781 59.7549 226.098 59.0518C225.424 58.3486 224.906 57.5332 224.545 56.6055C224.184 55.668 224.003 54.6719 224.003 53.6172V53.0312C224.003 51.8301 224.174 50.7314 224.516 49.7354C224.857 48.7393 225.346 47.875 225.98 47.1426C226.625 46.4102 227.406 45.8486 228.324 45.458C229.242 45.0576 230.277 44.8574 231.43 44.8574C232.553 44.8574 233.549 45.043 234.418 45.4141C235.287 45.7852 236.015 46.3125 236.601 46.9961C237.196 47.6797 237.646 48.5 237.948 49.457C238.251 50.4043 238.402 51.459 238.402 52.6211V54.3789H225.805V51.5664H234.257V51.2441C234.257 50.6582 234.149 50.1357 233.935 49.6768C233.729 49.208 233.417 48.8369 232.997 48.5635C232.577 48.29 232.04 48.1533 231.386 48.1533C230.829 48.1533 230.351 48.2754 229.95 48.5195C229.55 48.7637 229.223 49.1055 228.969 49.5449C228.725 49.9844 228.539 50.502 228.412 51.0977C228.295 51.6836 228.236 52.3281 228.236 53.0312V53.6172C228.236 54.252 228.324 54.8379 228.5 55.375C228.686 55.9121 228.944 56.376 229.276 56.7666C229.618 57.1572 230.028 57.46 230.507 57.6748C230.995 57.8896 231.547 57.9971 232.162 57.9971C232.924 57.9971 233.632 57.8506 234.286 57.5576C234.95 57.2549 235.521 56.8008 236 56.1953L238.051 58.4219C237.719 58.9004 237.265 59.3594 236.688 59.7988C236.122 60.2383 235.438 60.5996 234.638 60.8828C233.837 61.1562 232.924 61.293 231.898 61.293ZM258.427 39.6719V61H254.032L245.463 46.7031V61H241.068V39.6719H245.463L254.047 53.9834V39.6719H258.427ZM275.961 57.5723V61H265.224V57.5723H275.961ZM266.645 39.6719V61H262.25V39.6719H266.645ZM292.704 48.3584V51.7861H281.571V48.3584H292.704ZM282.875 39.6719V61H278.48V39.6719H282.875ZM295.839 39.6719V61H291.459V39.6719H295.839ZM299.604 58.9639C299.604 58.3389 299.818 57.8164 300.248 57.3965C300.688 56.9766 301.269 56.7666 301.991 56.7666C302.714 56.7666 303.29 56.9766 303.72 57.3965C304.159 57.8164 304.379 58.3389 304.379 58.9639C304.379 59.5889 304.159 60.1113 303.72 60.5312C303.29 60.9512 302.714 61.1611 301.991 61.1611C301.269 61.1611 300.688 60.9512 300.248 60.5312C299.818 60.1113 299.604 59.5889 299.604 58.9639ZM314.647 57.9971C315.165 57.9971 315.624 57.8994 316.024 57.7041C316.425 57.499 316.737 57.2158 316.962 56.8545C317.196 56.4834 317.318 56.0488 317.328 55.5508H321.298C321.288 56.6641 320.99 57.6553 320.404 58.5244C319.818 59.3838 319.032 60.0625 318.046 60.5605C317.06 61.0488 315.956 61.293 314.735 61.293C313.505 61.293 312.431 61.0879 311.513 60.6777C310.604 60.2676 309.848 59.7012 309.242 58.9785C308.637 58.2461 308.183 57.3965 307.88 56.4297C307.577 55.4531 307.426 54.4082 307.426 53.2949V52.8701C307.426 51.7471 307.577 50.7021 307.88 49.7354C308.183 48.7588 308.637 47.9092 309.242 47.1865C309.848 46.4541 310.604 45.8828 311.513 45.4727C312.421 45.0625 313.485 44.8574 314.706 44.8574C316.005 44.8574 317.143 45.1064 318.119 45.6045C319.105 46.1025 319.877 46.8154 320.434 47.7432C321 48.6611 321.288 49.75 321.298 51.0098H317.328C317.318 50.4824 317.206 50.0039 316.991 49.5742C316.786 49.1445 316.483 48.8027 316.083 48.5488C315.692 48.2852 315.209 48.1533 314.633 48.1533C314.018 48.1533 313.515 48.2852 313.124 48.5488C312.733 48.8027 312.431 49.1543 312.216 49.6035C312.001 50.043 311.85 50.5459 311.762 51.1123C311.684 51.6689 311.645 52.2549 311.645 52.8701V53.2949C311.645 53.9102 311.684 54.501 311.762 55.0674C311.84 55.6338 311.986 56.1367 312.201 56.5762C312.426 57.0156 312.733 57.3623 313.124 57.6162C313.515 57.8701 314.022 57.9971 314.647 57.9971ZM323.07 53.2363V52.9287C323.07 51.7666 323.236 50.6973 323.568 49.7207C323.9 48.7344 324.384 47.8799 325.019 47.1572C325.653 46.4346 326.435 45.873 327.362 45.4727C328.29 45.0625 329.354 44.8574 330.556 44.8574C331.757 44.8574 332.826 45.0625 333.764 45.4727C334.701 45.873 335.487 46.4346 336.122 47.1572C336.767 47.8799 337.255 48.7344 337.587 49.7207C337.919 50.6973 338.085 51.7666 338.085 52.9287V53.2363C338.085 54.3887 337.919 55.458 337.587 56.4443C337.255 57.4209 336.767 58.2754 336.122 59.0078C335.487 59.7305 334.706 60.292 333.778 60.6924C332.851 61.0928 331.786 61.293 330.585 61.293C329.384 61.293 328.314 61.0928 327.377 60.6924C326.449 60.292 325.663 59.7305 325.019 59.0078C324.384 58.2754 323.9 57.4209 323.568 56.4443C323.236 55.458 323.07 54.3887 323.07 53.2363ZM327.289 52.9287V53.2363C327.289 53.9004 327.348 54.5205 327.465 55.0967C327.582 55.6729 327.768 56.1807 328.021 56.6201C328.285 57.0498 328.627 57.3867 329.047 57.6309C329.467 57.875 329.979 57.9971 330.585 57.9971C331.171 57.9971 331.674 57.875 332.094 57.6309C332.514 57.3867 332.851 57.0498 333.104 56.6201C333.358 56.1807 333.544 55.6729 333.661 55.0967C333.788 54.5205 333.852 53.9004 333.852 53.2363V52.9287C333.852 52.2842 333.788 51.6787 333.661 51.1123C333.544 50.5361 333.354 50.0283 333.09 49.5889C332.836 49.1396 332.499 48.7881 332.079 48.5342C331.659 48.2803 331.151 48.1533 330.556 48.1533C329.96 48.1533 329.452 48.2803 329.032 48.5342C328.622 48.7881 328.285 49.1396 328.021 49.5889C327.768 50.0283 327.582 50.5361 327.465 51.1123C327.348 51.6787 327.289 52.2842 327.289 52.9287ZM344.896 48.4316V61H340.663V45.1504H344.633L344.896 48.4316ZM344.311 52.5186H343.139C343.139 51.415 343.271 50.3994 343.534 49.4717C343.808 48.5342 344.203 47.7236 344.721 47.04C345.248 46.3467 345.897 45.8096 346.669 45.4287C347.44 45.0479 348.334 44.8574 349.35 44.8574C350.053 44.8574 350.697 44.9648 351.283 45.1797C351.869 45.3848 352.372 45.7119 352.792 46.1611C353.222 46.6006 353.554 47.1768 353.788 47.8896C354.022 48.5928 354.14 49.4375 354.14 50.4238V61H349.921V50.8926C349.921 50.1699 349.823 49.6133 349.628 49.2227C349.433 48.832 349.154 48.5586 348.793 48.4023C348.441 48.2461 348.017 48.168 347.519 48.168C346.972 48.168 346.493 48.2803 346.083 48.5049C345.683 48.7295 345.351 49.042 345.087 49.4424C344.823 49.833 344.628 50.292 344.501 50.8193C344.374 51.3467 344.311 51.9131 344.311 52.5186ZM353.744 52.0352L352.235 52.2256C352.235 51.1904 352.362 50.2285 352.616 49.3398C352.88 48.4512 353.266 47.6699 353.773 46.9961C354.291 46.3223 354.931 45.7998 355.692 45.4287C356.454 45.0479 357.333 44.8574 358.329 44.8574C359.091 44.8574 359.784 44.9697 360.409 45.1943C361.034 45.4092 361.566 45.7559 362.006 46.2344C362.455 46.7031 362.797 47.3184 363.031 48.0801C363.275 48.8418 363.397 49.7744 363.397 50.8779V61H359.164V50.8779C359.164 50.1455 359.066 49.5889 358.871 49.208C358.686 48.8174 358.412 48.5488 358.051 48.4023C357.699 48.2461 357.279 48.168 356.791 48.168C356.283 48.168 355.839 48.2705 355.458 48.4756C355.077 48.6709 354.76 48.9443 354.506 49.2959C354.252 49.6475 354.062 50.0576 353.935 50.5264C353.808 50.9854 353.744 51.4883 353.744 52.0352Z" fill="white"/>
</svg>
